<svg id="visual" viewBox="0 0 900 600" width="900" height="600" xmlns="http://www.w3.org/2000/svg" xmlns:xlink="http://www.w3.org/1999/xlink" version="1.1"><path d="M0 103L13.7 107C27.3 111 54.7 119 82 128C109.3 137 136.7 147 163.8 135C191 123 218 89 245.2 80C272.3 71 299.7 87 327 91C354.3 95 381.7 87 409 93C436.3 99 463.7 119 491 121C518.3 123 545.7 107 573 102C600.3 97 627.7 103 654.8 109C682 115 709 121 736.2 110C763.3 99 790.7 71 818 72C845.3 73 872.7 103 886.3 118L900 133L900 0L886.3 0C872.7 0 845.3 0 818 0C790.7 0 763.3 0 736.2 0C709 0 682 0 654.8 0C627.7 0 600.3 0 573 0C545.7 0 518.3 0 491 0C463.7 0 436.3 0 409 0C381.7 0 354.3 0 327 0C299.7 0 272.3 0 245.2 0C218 0 191 0 163.8 0C136.7 0 109.3 0 82 0C54.7 0 27.3 0 13.7 0L0 0Z" fill="#a067ff"></path><path d="M0 187L13.7 187C27.3 187 54.7 187 82 188C109.3 189 136.7 191 163.8 179C191 167 218 141 245.2 140C272.3 139 299.7 163 327 172C354.3 181 381.7 175 409 175C436.3 175 463.7 181 491 177C518.3 173 545.7 159 573 152C600.3 145 627.7 145 654.8 147C682 149 709 153 736.2 151C763.3 149 790.7 141 818 147C845.3 153 872.7 173 886.3 183L900 193L900 131L886.3 116C872.7 101 845.3 71 818 70C790.7 69 763.3 97 736.2 108C709 119 682 113 654.8 107C627.7 101 600.3 95 573 100C545.7 105 518.3 121 491 119C463.7 117 436.3 97 409 91C381.7 85 354.3 93 327 89C299.7 85 272.3 69 245.2 78C218 87 191 121 163.8 133C136.7 145 109.3 135 82 126C54.7 117 27.3 109 13.7 105L0 101Z" fill="#8c4aff"></path><path d="M0 361L13.7 360C27.3 359 54.7 357 82 358C109.3 359 136.7 363 163.8 350C191 337 218 307 245.2 289C272.3 271 299.7 265 327 276C354.3 287 381.7 315 409 324C436.3 333 463.7 323 491 319C518.3 315 545.7 317 573 328C600.3 339 627.7 359 654.8 373C682 387 709 395 736.2 378C763.3 361 790.7 319 818 299C845.3 279 872.7 281 886.3 282L900 283L900 191L886.3 181C872.7 171 845.3 151 818 145C790.7 139 763.3 147 736.2 149C709 151 682 147 654.8 145C627.7 143 600.3 143 573 150C545.7 157 518.3 171 491 175C463.7 179 436.3 173 409 173C381.7 173 354.3 179 327 170C299.7 161 272.3 137 245.2 138C218 139 191 165 163.8 177C136.7 189 109.3 187 82 186C54.7 185 27.3 185 13.7 185L0 185Z" fill="#7425ff"></path><path d="M0 469L13.7 465C27.3 461 54.7 453 82 459C109.3 465 136.7 485 163.8 493C191 501 218 497 245.2 485C272.3 473 299.7 453 327 447C354.3 441 381.7 449 409 451C436.3 453 463.7 449 491 453C518.3 457 545.7 469 573 477C600.3 485 627.7 489 654.8 493C682 497 709 501 736.2 491C763.3 481 790.7 457 818 449C845.3 441 872.7 449 886.3 453L900 457L900 281L886.3 280C872.7 279 845.3 277 818 297C790.7 317 763.3 359 736.2 376C709 393 682 385 654.8 371C627.7 357 600.3 337 573 326C545.7 315 518.3 313 491 317C463.7 321 436.3 331 409 322C381.7 313 354.3 285 327 274C299.7 263 272.3 269 245.2 287C218 305 191 335 163.8 348C136.7 361 109.3 357 82 356C54.7 355 27.3 357 13.7 358L0 359Z" fill="#6101f1"></path><path d="M0 505L13.7 502C27.3 499 54.7 493 82 502C109.3 511 136.7 535 163.8 548C191 561 218 563 245.2 554C272.3 545 299.7 525 327 520C354.3 515 381.7 525 409 528C436.3 531 463.7 527 491 527C518.3 527 545.7 531 573 532C600.3 533 627.7 531 654.8 533C682 535 709 541 736.2 536C763.3 531 790.7 515 818 510C845.3 505 872.7 511 886.3 514L900 517L900 455L886.3 451C872.7 447 845.3 439 818 447C790.7 455 763.3 479 736.2 489C709 499 682 495 654.8 491C627.7 487 600.3 483 573 475C545.7 467 518.3 455 491 451C463.7 447 436.3 451 409 449C381.7 447 354.3 439 327 445C299.7 451 272.3 471 245.2 483C218 495 191 499 163.8 491C136.7 483 109.3 463 82 457C54.7 451 27.3 459 13.7 463L0 467Z" fill="#5602d5"></path><path d="M0 601L13.7 601C27.3 601 54.7 601 82 601C109.3 601 136.7 601 163.8 601C191 601 218 601 245.2 601C272.3 601 299.7 601 327 601C354.3 601 381.7 601 409 601C436.3 601 463.7 601 491 601C518.3 601 545.7 601 573 601C600.3 601 627.7 601 654.8 601C682 601 709 601 736.2 601C763.3 601 790.7 601 818 601C845.3 601 872.7 601 886.3 601L900 601L900 515L886.3 512C872.7 509 845.3 503 818 508C790.7 513 763.3 529 736.2 534C709 539 682 533 654.8 531C627.7 529 600.3 531 573 530C545.7 529 518.3 525 491 525C463.7 525 436.3 529 409 526C381.7 523 354.3 513 327 518C299.7 523 272.3 543 245.2 552C218 561 191 559 163.8 546C136.7 533 109.3 509 82 500C54.7 491 27.3 497 13.7 500L0 503Z" fill="#4b03ba"></path></svg>